Coordinates
version=1
nRows=15
nColumns=46
inDegrees=yes

Units are S.I. units (second, meters, Newtons, ...)
Angles are in degrees.

endheader
time	pelvis_tilt	pelvis_list	pelvis_rotation	pelvis_tx	pelvis_ty	pelvis_tz	bb_angle	bb_tx	bb_ty	bb_tz	hip_flexion_r	hip_adduction_r	hip_rotation_r	knee_angle_r	knee_angle_r_beta	ankle_angle_r	subtalar_angle_r	mtp_angle_r	crank_angle_r	hip_flexion_l	hip_adduction_l	hip_rotation_l	knee_angle_l	knee_angle_l_beta	ankle_angle_l	subtalar_angle_l	mtp_angle_l	crank_angle_l	lumbar_extension	lumbar_bending	lumbar_rotation	arm_flex_r	arm_add_r	arm_rot_r	elbow_flex_r	pro_sup_r	wrist_flex_r	wrist_dev_r	arm_flex_l	arm_add_l	arm_rot_l	elbow_flex_l	pro_sup_l	wrist_flex_l	wrist_dev_l
      2.50500000	    -17.51486200	      4.55282142	     12.75452545	      0.31671708	      1.24029425	     -0.23015165	      0.00000000	      0.50000000	      0.00000000	      0.25000000	     29.07281789	     -7.68945579	      3.01456364	     56.55544038	      0.98707864	    -20.15254065	    -12.97511009	      0.00000000	      0.00000000	     54.26999616	      7.22561605	      3.73565548	     65.92623642	      1.15062989	     12.69221709	     -4.38691280	      0.00000000	      0.00000000	    -65.21294145	      0.78643945	     -3.22060549	     52.01963960	    -20.13933899	     11.14051341	     74.01606321	     50.70446834	      0.00000000	      0.00000000	     68.62010130	     -4.06617076	     33.51167839	     58.39729722	     55.06050696	      0.00000000	      0.00000000
      2.51000000	    -17.55169843	      3.89322235	     12.73036237	      0.31698222	      1.23959657	     -0.23044825	      0.00000000	      0.50000000	      0.00000000	      0.25000000	     30.06646657	     -7.10149845	      2.74489245	     58.89176647	      1.02785523	    -18.57773912	    -12.82612553	      0.00000000	      0.00000000	     53.11823075	      6.73914731	      4.23914058	     63.55353685	      1.10921847	     12.17594706	     -4.36378691	      0.00000000	      0.00000000	    -65.23607649	      1.36386708	     -2.98928408	     52.41860516	    -19.96245835	     11.53208867	     74.04683622	     50.75493687	      0.00000000	      0.00000000	     68.23713538	     -4.50982003	     32.91317469	     59.34590176	     55.13139075	      0.00000000	      0.00000000
      2.51500000	    -17.48728703	      3.19771301	     12.65662808	      0.31704723	      1.23878713	     -0.23081107	      0.00000000	      0.50000000	      0.00000000	      0.25000000	     31.00069559	     -6.50800576	      2.43203178	     61.19649621	      1.06808035	    -17.08477618	    -12.42522918	      0.00000000	      0.00000000	     51.89828113	      6.18046033	      4.73826605	     61.22582354	      1.06859221	     11.52153312	     -4.57181624	      0.00000000	      0.00000000	    -65.29245924	      1.89968474	     -4.93079113	     54.54106646	    -17.63183185	     14.37366552	     71.43755958	     50.68776428	      0.00000000	      0.00000000	     66.12858076	     -7.39982145	     29.88461085	     64.24592174	     55.50075989	      0.00000000	      0.00000000
      2.52000000	    -17.56737946	      2.61541353	     12.54922593	      0.31721170	      1.23763732	     -0.23115967	      0.00000000	      0.50000000	      0.00000000	      0.25000000	     32.14548812	     -6.11085766	      2.12263884	     63.58424508	      1.10975443	    -15.47190994	    -11.98358951	      0.00000000	      0.00000000	     50.83030943	      5.48540173	      4.75077280	     58.92128268	      1.02837038	     10.73765434	     -4.34512519	      0.00000000	      0.00000000	    -65.15373495	      2.32235865	     -4.96445139	     54.93587337	    -17.16974648	     15.05292026	     71.18706151	     50.73788602	      0.00000000	      0.00000000	     65.70231314	     -8.02174811	     29.40547749	     64.94033486	     55.54672695	      0.00000000	      0.00000000
      2.52500000	    -17.55420681	      1.82779409	     12.39148623	      0.31729949	      1.23625621	     -0.23141968	      0.00000000	      0.50000000	      0.00000000	      0.25000000	     33.20602237	     -5.46804366	      1.69832205	     65.84740237	      1.14925398	    -14.12359938	    -11.97884541	      0.00000000	      0.00000000	     49.73906426	      4.82396004	      5.35738254	     56.78603040	      0.99110320	      9.76218555	     -4.52403501	      0.00000000	      0.00000000	    -65.03944991	      2.96466725	     -5.93996171	     56.40187213	    -15.52956333	     17.04808155	     69.35905559	     50.71446914	      0.00000000	      0.00000000	     64.32113709	    -10.04301722	     27.73404406	     67.64376765	     55.75047963	      0.00000000	      0.00000000
      2.53000000	    -17.46343633	      0.94509043	     12.13422146	      0.31769843	      1.23467800	     -0.23160410	      0.00000000	      0.50000000	      0.00000000	      0.25000000	     34.25162329	     -4.75764719	      1.15563290	     68.11427264	      1.18881833	    -13.02487785	    -12.24450332	      0.00000000	      0.00000000	     48.63128642	      3.86813380	      5.68017224	     54.71343970	      0.95492967	      9.19253575	     -4.55060854	      0.00000000	      0.00000000	    -64.95216661	      3.35075564	     -5.36788390	     56.60218451	    -15.32340574	     17.19512718	     69.35401961	     50.73104820	      0.00000000	      0.00000000	     64.15371149	    -10.28278127	     27.61993411	     67.69397861	     55.74435599	      0.00000000	      0.00000000
      2.53500000	    -17.62340660	      0.25177674	     11.80068696	      0.31781644	      1.23250278	     -0.23233886	      0.00000000	      0.50000000	      0.00000000	      0.25000000	     35.66552202	     -4.39823268	      0.73834363	     70.57829391	      1.23182361	    -11.36316283	    -11.47158175	      0.00000000	      0.00000000	     47.75459363	      3.24806244	      6.07857913	     52.67189631	      0.91929801	      7.57995781	     -5.11533200	      0.00000000	      0.00000000	    -64.49399877	      3.83958078	     -6.43290714	     57.89591675	    -13.72198777	     19.48429883	     67.29077116	     50.71017277	      0.00000000	      0.00000000	     62.67217413	    -12.29236992	     25.99084603	     70.07830138	     55.90756677	      0.00000000	      0.00000000
      2.54000000	    -17.43216544	     -0.59026819	     11.39336594	      0.31800360	      1.23077669	     -0.23223296	      0.00000000	      0.50000000	      0.00000000	      0.25000000	     36.77416096	     -3.75454222	      0.21899203	     72.92048881	      1.27270262	    -10.34248848	    -11.41546489	      0.00000000	      0.00000000	     46.55108822	      2.19867097	      6.39478417	     50.69532563	      0.88480035	      6.61091616	     -4.87846471	      0.00000000	      0.00000000	    -64.43373994	      4.12704401	     -5.75320229	     58.13239311	    -13.53276672	     19.64614267	     67.27316649	     50.72718655	      0.00000000	      0.00000000	     62.47147483	    -12.57420768	     25.91171879	     70.08935053	     55.90048364	      0.00000000	      0.00000000
      2.54500000	    -17.41396950	     -1.16488608	     10.93928550	      0.31836011	      1.22866150	     -0.23302223	      0.00000000	      0.50000000	      0.00000000	      0.25000000	     38.05798619	     -3.49394648	     -0.08825875	     75.40225080	      1.31601754	     -8.79052288	    -10.04458135	      0.00000000	      0.00000000	     45.11911274	      1.78063677	      6.95858573	     48.29616983	      0.84292718	      5.19893456	     -6.66229200	      0.00000000	      0.00000000	    -64.15823165	      4.32747469	     -5.65458610	     58.52257490	    -13.27093477	     20.75441378	     66.73050569	     50.78739726	      0.00000000	      0.00000000	     61.87264829	    -13.23214316	     25.51607505	     70.67558176	     55.94721829	      0.00000000	      0.00000000
      2.55000000	    -17.27805130	     -2.14424349	     10.31907357	      0.31901285	      1.22652429	     -0.23311896	      0.00000000	      0.50000000	      0.00000000	      0.25000000	     39.23455532	     -2.60569155	     -0.45817325	     77.67647676	      1.35571027	     -7.49362225	     -9.75124905	      0.00000000	      0.00000000	     44.05915145	      0.35337750	      6.99148627	     46.62806139	      0.81381320	      4.35641705	     -5.98446041	      0.00000000	      0.00000000	    -63.92795888	      4.69013646	     -5.39604066	     59.28922651	    -12.66971024	     22.43173179	     65.45906537	     50.83480097	      0.00000000	      0.00000000	     60.90763220	    -14.35551539	     24.83292031	     71.76611566	     56.03873067	      0.00000000	      0.00000000
      2.55500000	    -17.12275506	     -3.10346115	      9.66037775	      0.31972020	      1.22429357	     -0.23337756	      0.00000000	      0.50000000	      0.00000000	      0.25000000	     40.46243443	     -1.81356301	     -0.83487167	     79.99979064	      1.39625975	     -6.10055920	     -9.36326089	      0.00000000	      0.00000000	     43.03666775	     -1.10193475	      6.95992169	     45.08482809	      0.78687869	      3.39528096	     -5.24375553	      0.00000000	      0.00000000	    -63.68227250	      4.97046544	     -4.48294803	     59.34885241	    -12.57134664	     22.82560554	     65.26553912	     50.86120052	      0.00000000	      0.00000000	     60.41040927	    -14.76555350	     24.96886011	     71.77069854	     56.06271294	      0.00000000	      0.00000000
      2.56000000	    -16.88718438	     -4.04717565	      9.04854260	      0.32050089	      1.22215771	     -0.23414208	      0.00000000	      0.50000000	      0.00000000	      0.25000000	     41.58954962	     -1.10627475	     -1.35257039	     82.22115581	      1.43502988	     -5.31533134	     -9.40916638	      0.00000000	      0.00000000	     41.54432808	     -2.20027914	      7.33657043	     43.13966091	      0.75292912	      2.46713299	     -4.42502109	      0.00000000	      0.00000000	    -63.49574688	      5.41462395	     -3.45697992	     59.33005400	    -12.46684547	     23.02109265	     65.20211561	     50.87556029	      0.00000000	      0.00000000	     59.98434799	    -15.11950306	     24.90548362	     71.70577297	     56.04975484	      0.00000000	      0.00000000
      2.56500000	    -16.61415314	     -4.95494838	      8.08138339	      0.32152049	      1.22016041	     -0.23431899	      0.00000000	      0.50000000	      0.00000000	      0.25000000	     42.71865014	     -0.20157741	     -1.52078641	     84.40593995	      1.47316156	     -4.04626743	     -8.31406880	      0.00000000	      0.00000000	     40.05535198	     -3.69311580	      7.20070289	     41.38167409	      0.72224646	      1.69768629	     -5.70317301	      0.00000000	      0.00000000	    -63.35223903	      5.44523999	     -2.30912414	     59.42112416	    -12.72190685	     23.77134563	     64.83701853	     50.90292549	      0.00000000	      0.00000000	     59.32266495	    -15.37861297	     24.79397200	     71.86298578	     56.05377919	      0.00000000	      0.00000000
      2.57000000	    -16.22872452	     -5.87402378	      7.11965019	      0.32298608	      1.21820524	     -0.23460308	      0.00000000	      0.50000000	      0.00000000	      0.25000000	     43.70602335	      0.72599436	     -1.72337239	     86.51745033	      1.51001437	     -3.07584388	     -7.60758858	      0.00000000	      0.00000000	     38.36909593	     -5.36271833	      6.45545927	     39.65364076	      0.69208659	      0.96340114	     -2.45855977	      0.00000000	      0.00000000	    -63.28912913	      5.60394315	     -1.15103895	     59.52110157	    -12.94673102	     24.68693497	     64.53666451	     50.95958149	      0.00000000	      0.00000000	     58.64457539	    -15.66656835	     24.69030949	     71.93449874	     56.04190015	      0.00000000	      0.00000000
      2.57500000	    -15.94386794	     -6.83149428	      6.37263862	      0.32394180	      1.21608053	     -0.23549947	      0.00000000	      0.50000000	      0.00000000	      0.25000000	     44.89691993	      1.38875199	     -2.25997849	     88.54277179	      1.54536290	     -2.68872165	     -7.43553431	      0.00000000	      0.00000000	     36.86013373	     -6.70702034	      6.40068052	     38.06162582	      0.66430069	      0.46897556	     -2.31650333	      0.00000000	      0.00000000	    -63.10701497	      6.09722202	     -0.05478232	     59.50142798	    -12.85966337	     24.97362295	     64.44446032	     50.97179971	      0.00000000	      0.00000000	     57.94523374	    -16.00684504	     24.71923562	     71.74755333	     56.01058998	      0.00000000	      0.00000000
